Patient4_TMGait_0pt2_03_left_12_EMG.mot
version=1
nRows=13
nColumns=33
inDegrees=no
endheader
time	1LAddLong	2LGlutMax	3LGlutMed	4LIliopsoas	5LSemiMemb	6LBicFemLong	7LRecFem	8LVastMed	9LVastLat	10LGasMed	11LTibAnt	12lTibPost	13LPeroneusLong	14LSol	15LExtDigLong	16LFlexDigLong	17RAddLong	18RGlutMax	19RGlutMed	20RIliopsoas	21RSemiMemb	22RBicFemLong	23RRecFem	24RVastMed	25RVastLat	26RGasMed	27RTibAnt	28RTibPost	29RPeroneusLong	30RSol	31RExtDigLong	32RFlexDigLong
26.05	0.011292	-0.034943	-0.099792	0.005493	0.027161	-0.089874	0.032043	-0.000458	0.063019	0.042572	-0.013428	0.003204	0.15152	0.033569	0.001678	-0.008392	-0.000916	-0.056763	-0.14435	0.028076	-0.035706	0.046997	0.17929	-0.006561	-0.050201	0.006714	0.015259	-0.005341	0.033264	0.041504	-0.006409	-0.006256
26.051	0.023346	0.018158	-0.12802	-0.00946	0.11658	-0.11688	-0.016327	-0.016174	0.044861	0.002136	-0.00824	0.000305	-0.052338	0.029297	-0.014496	-0.004578	0.000763	-0.080414	-0.072632	-0.2269	-0.061188	0.037842	0.26764	-0.02121	-0.090942	0.005493	0.028076	-0.005188	-0.004883	0.033875	-0.000458	-0.010376
26.052	0.023499	-0.03952	-0.092163	0.000763	0.04715	-0.066528	0.045319	-0.009918	0.028381	0.011749	0.001831	0.002747	-0.55206	-0.01297	-0.037079	-0.003052	0.017395	-0.055847	-0.051727	-0.095367	-0.065918	0.024872	0.33951	-0.0383	-0.12268	0.007477	0.033722	-0.003662	-0.033112	0.028381	-0.003662	-0.010223
26.053	0.019684	-0.022888	-0.048065	0.003052	0.046692	0.022888	0.070343	-0.002441	0.018921	0.038147	0.010071	0.003204	-0.23025	-0.090942	-0.05188	-0.004425	0.017242	-0.0354	-0.051422	0.018921	-0.058899	0.021057	0.33112	-0.078583	-0.16937	-0.002289	0.030518	-0.003052	-0.01358	0.004578	-0.002594	-0.010223
26.054	0.014648	-0.013123	-0.046082	-0.011597	0.083923	0.13412	0.14099	-0.000763	-0.009155	0.046082	-0.021057	0.002289	-0.10269	-0.11139	-0.045624	-0.002136	0.000916	-0.048523	-0.17197	0.042419	-0.040741	0.013275	0.24948	-0.090179	-0.16403	0.003204	0.053101	-0.005035	-0.035248	0.010071	-0.003357	-0.007324
26.055	0.012207	0.001984	-0.066528	0.028534	0.073853	0.15396	0.12833	0.000305	-0.10056	0.091858	-0.05188	0.005951	0.24536	-0.10284	-0.085144	-0.005951	0.006409	-0.03891	-0.2948	0.056458	-0.032196	0.018616	0.20386	-0.09201	-0.066528	0.001068	0.041504	-0.000305	-0.005035	0.039825	-0.001984	-0.009918
26.056	0.01297	-0.02533	-0.11353	0.032043	0.038757	0.22568	0.072021	0.002441	-0.042267	0.061951	-0.024414	0.013275	0.098114	0.077972	0.040588	0.002899	-0.006714	-0.022583	-0.39536	0.074921	-0.032043	0.027924	0.1413	-0.12054	0.016174	0.00473	0.045166	-0.006409	0.033417	0.029297	0.003815	-0.010376
26.057	0.000763	-0.016479	-0.1561	0.032043	0.026703	0.27252	0.047455	-0.001831	-0.027771	0.039978	0.052643	-0.003204	-0.043945	0.14069	0.033112	-0.001984	-0.00061	-0.035095	-0.60745	0.053864	-0.03479	-0.005493	0.26718	-0.18631	0.036316	0.002441	0.040588	-0.004425	0.062256	0.04837	-0.003052	-0.00473
26.058	-0.007935	-0.075836	-0.16739	0.009766	0.040436	0.18066	0.025482	0.018616	-0.029144	0.043488	0.078888	0.003967	0.030823	0.058899	-0.063934	0.006714	-0.015869	-0.017548	-0.50797	0.005035	-0.033875	-0.023499	-0.04364	-0.19653	0.086365	0.002441	0.064087	-0.00412	0.004425	0.033417	-0.001526	-0.006866
26.059	-0.025482	-0.050812	-0.12512	-0.007324	0.055695	0.19898	0.06485	0.004883	-0.020142	0.046387	0.049286	-0.002594	0.20477	0.019989	-0.070648	-0.015717	-0.027161	0.004883	0.19608	-0.074463	-0.022583	-0.026703	-0.62057	-0.07431	0.19852	0.007477	0.050812	-0.003357	-0.013123	0.020447	-0.002289	-0.00824
26.06	-0.1178	-0.045319	-0.14008	-0.017548	0.025024	0.20172	-0.040588	0.00885	0.005035	0.024719	0.041656	0.00473	-0.14679	0.078583	0.016479	-0.009918	-0.040588	0.069427	0.32486	-0.16251	-0.012817	-0.025024	-0.88226	0.19959	0.23697	0.005035	0.014343	-0.009003	0.061188	0.024261	-0.002594	0.001221
26.061	-0.088806	-0.002136	-0.074158	-0.003662	-0.03479	0.11993	-0.1622	0.017548	0.12756	0.019531	0.016632	-0.002899	-0.039368	0.063629	0.06424	-0.006561	-0.032501	0.043488	0.46951	-0.1091	-0.011444	-0.041351	-0.44022	0.3154	0.12466	-0.001068	0.001526	-0.005035	0.04425	0.031433	-0.000458	-0.007477
26.062	0.0354	-0.021515	-0.032654	0.028839	-0.078735	-0.27649	-0.11063	-0.007477	0.23132	0.021362	-0.003662	0.007019	-0.12131	-0.043793	0.038757	0.006104	0.00473	0.019073	0.093384	0.000763	-0.036621	-0.068665	-0.013123	0.15976	-0.027313	-0.002441	0.044098	0.001831	0.03006	0.003052	-0.002747	0.00061
